<?xml version="1.0" encoding="UTF-8" standalone="no"?>
<svg
   version="1.1"
   viewBox="0 0 64 64"
   id="svg3"
   xmlns="http://www.w3.org/2000/svg"
   xmlns:svg="http://www.w3.org/2000/svg">
  <defs
     id="defs3" />
  <g
     transform="translate(-52.923 -75.638)"
     id="g3">
    <g
       transform="matrix(.43754 0 0 .43754 36.608 44.544)"
       fill-rule="evenodd"
       stroke-width="2.2855"
       id="g2">
      <path
         d="m158.28 75.638c-25.837 10.582-55.58 13.326-71.227 44.356 9.9185 9.1654 16.803 20.325 20.219 32.735 4.0923-12.766 9.6165-29.801 25.987-48.229 3.0133-3.392 7.6686 0.25186 5.0214 3.3636-23.565 27.7-25.616 49.2-28.809 69.581-0.65497 7.8356-2.5321 15.929-5.7407 24.146 21.678 1.2427 89.035-7.9633 54.55-125.95z"
         fill="#4e9a06"
         id="path1" />
      <path
         d="m54.454 109.36c-1.7444 38.935-7.8452 67.608 26.943 78.126 5.9261-19.542-2.8532-36.706-15.077-53.224-2.8462-3.8462 2.6333-5.6636 4.4953-3.3244 15.376 19.317 29.081 49.74 6.1185 76.967l13.329 4.8633c34.214-52.347-6.8198-101.5-35.809-103.41z"
         fill="#73d216"
         id="path2" />
    </g>
  </g>
</svg>
